custom-analysis
version=1
nRows=4
nColumns=98
inDegrees=no

This file contains tibia displacement and acting force.

Units are S.I. units (seconds, meters, Newtons, ...)
Angles are in degrees.

endheader
time	APT	SIT	knee_angle	aACL_R_force	pACL_R_force	aPCL_R_force	pPCL_R_force	aMCL_R_force	mMCL_R_force	pMCL_R_force	aLCL_R_force	mLCL_R_force	pLCL_R_force	aPCL_L_force	pPCL_L_force	aMCL_L_force	aLCL_L_force	aACL_R_length	pACL_R_length	aPCL_R_length	pPCL_R_length	aMCL_R_length	mMCL_R_length	pMCL_R_length	aLCL_R_length	mLCL_R_length	pLCL_R_length	aPCL_L_length	pPCL_L_length	aMCL_L_length	aLCL_L_length	aACL_R_strain	pACL_R_strain	aPCL_R_strain	pPCL_R_strain	aMCL_R_strain	mMCL_R_strain	pMCL_R_strain	aLCL_R_strain	mLCL_R_strain	pLCL_R_strain	aPCL_L_strain	pPCL_L_strain	aMCL_L_strain	aLCL_L_strain	femur_lat_meniscii_r.femur_lat_r.force.X	femur_lat_meniscii_r.femur_lat_r.force.Y	femur_lat_meniscii_r.femur_lat_r.force.Z	femur_lat_meniscii_r.femur_lat_r.torque.X	femur_lat_meniscii_r.femur_lat_r.torque.Y	femur_lat_meniscii_r.femur_lat_r.torque.Z	femur_lat_meniscii_r.meniscus_lat_r.force.X	femur_lat_meniscii_r.meniscus_lat_r.force.Y	femur_lat_meniscii_r.meniscus_lat_r.force.Z	femur_lat_meniscii_r.meniscus_lat_r.torque.X	femur_lat_meniscii_r.meniscus_lat_r.torque.Y	femur_lat_meniscii_r.meniscus_lat_r.torque.Z	femur_med_meniscii_r.femur_med_r.force.X	femur_med_meniscii_r.femur_med_r.force.Y	femur_med_meniscii_r.femur_med_r.force.Z	femur_med_meniscii_r.femur_med_r.torque.X	femur_med_meniscii_r.femur_med_r.torque.Y	femur_med_meniscii_r.femur_med_r.torque.Z	femur_med_meniscii_r.meniscus_med_r.force.X	femur_med_meniscii_r.meniscus_med_r.force.Y	femur_med_meniscii_r.meniscus_med_r.force.Z	femur_med_meniscii_r.meniscus_med_r.torque.X	femur_med_meniscii_r.meniscus_med_r.torque.Y	femur_med_meniscii_r.meniscus_med_r.torque.Z	femur_med_tibia_r.tibia_upper_r.force.X	femur_med_tibia_r.tibia_upper_r.force.Y	femur_med_tibia_r.tibia_upper_r.force.Z	femur_med_tibia_r.tibia_upper_r.torque.X	femur_med_tibia_r.tibia_upper_r.torque.Y	femur_med_tibia_r.tibia_upper_r.torque.Z	femur_med_tibia_r.femur_med_r.force.X	femur_med_tibia_r.femur_med_r.force.Y	femur_med_tibia_r.femur_med_r.force.Z	femur_med_tibia_r.femur_med_r.torque.X	femur_med_tibia_r.femur_med_r.torque.Y	femur_med_tibia_r.femur_med_r.torque.Z	femur_lat_tibia_r.tibia_upper_r.force.X	femur_lat_tibia_r.tibia_upper_r.force.Y	femur_lat_tibia_r.tibia_upper_r.force.Z	femur_lat_tibia_r.tibia_upper_r.torque.X	femur_lat_tibia_r.tibia_upper_r.torque.Y	femur_lat_tibia_r.tibia_upper_r.torque.Z	femur_lat_tibia_r.femur_lat_r.force.X	femur_lat_tibia_r.femur_lat_r.force.Y	femur_lat_tibia_r.femur_lat_r.force.Z	femur_lat_tibia_r.femur_lat_r.torque.X	femur_lat_tibia_r.femur_lat_r.torque.Y	femur_lat_tibia_r.femur_lat_r.torque.Z	femur_lat_meniscii_force_r	femur_med_meniscii_force_r	femur_lat_tibia_force_r	femur_med_tibia_force_r
      0.20936895	      0.01349078	      0.02615919	     81.38399466	     -2.86043273	      0.00000000	    975.10551128	    635.20266061	     32.56923172	     20.18594009	      0.00000000	      0.00000000	      0.00000000	      0.00000000	      0.00000000	      0.00000000	      0.00000001	      0.00000000	      0.03102726	      0.02443713	      0.03717498	      0.03395975	      0.06148656	      0.05992850	      0.05657495	      0.05013151	      0.04469443	      0.03970291	      0.01525851	      0.01651186	      0.06550154	      0.04489616	      0.00070182	     -0.02480455	      0.19551773	      0.13624129	      0.02431511	      0.00225777	     -0.03666145	     -0.10442985	     -0.20640022	     -0.24148148	      0.00000079	     -0.32847694	      0.00000060	     -0.00000086	    107.53360728	     85.35920151	     17.09426894	     -8.84311182	      2.59439888	     42.43217107	   -107.53360728	    -85.35920151	    -17.09426894	      2.33093313	     -3.34688604	      2.29099155	      0.03541031	      0.00168995	     -0.02239484	      0.00892504	     -0.00055189	      0.01407000	     -0.03541031	     -0.00168995	      0.02239484	     -0.00008867	      0.00106420	     -0.00005943	   -883.22810639	   -390.29763380	    304.82932589	     -8.33866750	     21.24290840	      3.23455385	    883.22810639	    390.29763380	   -304.82932589	    129.60224393	    -15.34720385	    355.66949256	   -305.38485938	   -148.18767156	    -90.97074967	      4.83892595	    -10.87779619	      1.48180157	    305.38485938	    148.18767156	     90.97074967	    -40.31694682	      7.59010204	    122.97189586	    138.35419765	      0.04193179	    351.41880376	   1012.59322968
      0.20940028	      0.01348887	      0.02616478	     81.40105437	     -2.91640232	      0.00000000	    975.78040618	    636.29658336	     32.88355590	     20.56572978	      0.00000000	      0.00000000	      0.00000000	      0.00000000	      0.00000000	      0.00000000	      0.00000001	      0.00000000	      0.03102703	      0.02443794	      0.03717714	      0.03396166	      0.06148781	      0.05992938	      0.05657612	      0.05013047	      0.04469319	      0.03970205	      0.01525851	      0.01651186	      0.06550154	      0.04489616	      0.00069429	     -0.02477226	      0.19558706	      0.13630511	      0.02433582	      0.00227248	     -0.03664139	     -0.10444850	     -0.20642218	     -0.24149779	      0.00000079	     -0.32847694	      0.00000060	     -0.00000086	    106.64509034	     83.72547833	     16.43272720	     -8.52510571	      2.56898547	     42.09337446	   -106.64509034	    -83.72547833	    -16.43272720	      2.26936227	     -3.30121439	      2.23587966	      0.03426228	      0.00167950	     -0.02169536	      0.00864662	     -0.00053423	      0.01361334	     -0.03426228	     -0.00167950	      0.02169536	     -0.00008601	      0.00103070	     -0.00005561	   -880.33496297	   -389.39908970	    303.68303277	     -8.30986016	     21.16688062	      3.24829879	    880.33496297	    389.39908970	   -303.68303277	    129.12077659	    -15.29399181	    354.49632134	   -304.54518547	   -148.16006470	    -90.86672487	      4.83581474	    -10.85417212	      1.49676575	    304.54518547	    148.16006470	     90.86672487	    -40.27335304	      7.57124083	    122.62712009	    136.57659221	      0.04058833	    350.65073286	   1009.37836438
      0.20949938	      0.01348283	      0.02618246	     81.45500826	     -2.71408743	      0.00000000	    976.67965019	    636.36634833	     32.57610791	     20.18182315	      0.00000000	      0.00000000	      0.00000000	      0.00000000	      0.00000000	      0.00000000	      0.00000001	      0.00000000	      0.03102631	      0.02444053	      0.03718396	      0.03396769	      0.06149174	      0.05993216	      0.05657985	      0.05012717	      0.04468929	      0.03969937	      0.01525851	      0.01651186	      0.06550154	      0.04489616	      0.00067113	     -0.02466904	      0.19580632	      0.13650685	      0.02440129	      0.00231902	     -0.03657791	     -0.10450736	     -0.20649145	     -0.24154910	      0.00000079	     -0.32847694	      0.00000060	     -0.00000086	    107.35544394	     83.74350331	     15.71467420	     -8.23571664	      2.57826430	     42.37907056	   -107.35544394	    -83.74350331	    -15.71467420	      2.26300375	     -3.29314883	      2.23338336	      0.03257170	      0.00160933	     -0.02066019	      0.00823393	     -0.00050818	      0.01294119	     -0.03257170	     -0.00160933	      0.02066019	     -0.00008138	      0.00098125	     -0.00005149	   -873.51609453	   -384.64991831	    302.42224485	     -8.22974390	     21.04319350	      3.18780518	    873.51609453	    384.64991831	   -302.42224485	    128.53641445	    -15.18463453	    351.75733878	   -302.85360263	   -146.55439109	    -90.06081821	      4.78359733	    -10.78290468	      1.46900733	    302.85360263	    146.55439109	     90.06081821	    -39.90908023	      7.52538297	    121.95073694	    137.05880736	      0.03860504	    348.29505473	   1001.22182419
      0.20972025	      0.01346978	      0.02622217	     81.57533448	     -2.29430026	      0.00000000	    977.90954809	    634.62703071	     30.94389969	     18.27568850	      0.00000000	      0.00000000	      0.00000000	      0.00000000	      0.00000000	      0.00000000	      0.00000001	      0.00000000	      0.03102491	      0.02444641	      0.03719861	      0.03398056	      0.06150018	      0.05993800	      0.05658777	      0.05011946	      0.04468022	      0.03969298	      0.01525851	      0.01651186	      0.06550154	      0.04489616	      0.00062596	     -0.02443415	      0.19627752	      0.13693734	      0.02454192	      0.00241659	     -0.03644316	     -0.10464512	     -0.20665250	     -0.24167121	      0.00000079	     -0.32847694	      0.00000060	     -0.00000086	    111.82294723	     84.60549150	     13.85370739	     -7.50377991	      2.66309365	     44.17263804	   -111.82294723	    -84.60549150	    -13.85370739	      2.26699657	     -3.34002289	      2.23114832	      0.02658474	     -0.00032377	     -0.01667786	      0.00662993	     -0.00041326	      0.01057591	     -0.02658474	      0.00032377	      0.01667786	     -0.00005251	      0.00079459	     -0.00009882	   -861.88778145	   -374.63050979	    300.42096639	     -8.06768241	     20.83758069	      3.02691922	    861.88778145	    374.63050979	   -300.42096639	    127.57114218	    -14.99891973	    347.10148100	   -299.73694436	   -143.15791366	    -87.68249428	      4.66217941	    -10.61658212	      1.40396544	    299.73694436	    143.15791366	     87.68249428	    -38.86194298	      7.42963151	    120.70900495	    140.90559225	      0.03138478	    343.54714940	    986.63636854
